<svg xmlns="http://www.w3.org/2000/svg" version="1.1" xmlns:xlink="http://www.w3.org/1999/xlink" xmlns:svgjs="http://svgjs.dev/svgjs" width="2000" height="525" viewBox="0 0 2000 525"><g transform="matrix(1,0,0,1,-1.2121212121212466,0.9843003482645827)"><svg viewBox="0 0 396 104" data-background-color="#ffffff" preserveAspectRatio="xMidYMid meet" height="525" width="2000" xmlns="http://www.w3.org/2000/svg" xmlns:xlink="http://www.w3.org/1999/xlink"><g id="tight-bounds" transform="matrix(1,0,0,1,0.2400000000000091,-0.19498521184669926)"><svg viewBox="0 0 395.52 104.38997042369341" height="104.38997042369341" width="395.52"><g><svg viewBox="0 0 506.31762487912783 133.63289311824144" height="104.38997042369341" width="395.52"><g transform="matrix(1,0,0,1,110.79762487912785,41.29450364119836)"><svg viewBox="0 0 395.52 51.04388583584471" height="51.04388583584471" width="395.52"><g id="textblocktransform"><svg viewBox="0 0 395.52 51.04388583584471" height="51.04388583584471" width="395.52" id="textblock"><g><svg viewBox="0 0 395.52 51.04388583584471" height="51.04388583584471" width="395.52"><g transform="matrix(1,0,0,1,0,0)"><svg width="395.52" viewBox="6.5 -35.7 282.03 36.400000000000006" height="51.04388583584471" data-palette-color="#556970"><path d="M14.6 0L6.5 0 6.5-35 13.45-35Q18.85-35 21.85-32.75 24.85-30.5 24.85-26.5L24.85-26.5Q24.85-23.55 23.1-21.48 21.35-19.4 18.2-18.65L18.2-18.65 18.2-18.35Q22.5-17.8 24.93-15.38 27.35-12.95 27.35-9.25L27.35-9.25Q27.35-4.9 24-2.45 20.65 0 14.6 0L14.6 0ZM13.5-33.8L13.5-33.8 9.9-33.8 9.9-18.8 13.45-18.8Q21.35-18.8 21.35-26.3L21.35-26.3Q21.35-33.8 13.5-33.8ZM14.6-17.6L14.6-17.6 9.9-17.6 9.9-1.2 14.6-1.2Q23.75-1.2 23.75-9.4L23.75-9.4Q23.75-17.6 14.6-17.6ZM34.85-17.5L34.85-17.5Q34.85-21.35 36.22-24.68 37.6-28 40.07-30.48 42.55-32.95 45.87-34.33 49.2-35.7 53.05-35.7L53.05-35.7Q56.9-35.7 60.22-34.33 63.55-32.95 66.02-30.48 68.5-28 69.87-24.68 71.25-21.35 71.25-17.5L71.25-17.5Q71.25-13.65 69.87-10.33 68.5-7 66.02-4.53 63.55-2.05 60.22-0.68 56.9 0.7 53.05 0.7L53.05 0.7Q49.2 0.7 45.87-0.68 42.55-2.05 40.07-4.53 37.6-7 36.22-10.33 34.85-13.65 34.85-17.5ZM38.65-17.5L38.65-17.5Q38.65-12.4 40.45-8.58 42.25-4.75 45.5-2.63 48.75-0.5 53.05-0.5L53.05-0.5Q57.35-0.5 60.6-2.63 63.85-4.75 65.65-8.6 67.45-12.45 67.45-17.5L67.45-17.5Q67.45-22.55 65.65-26.38 63.85-30.2 60.6-32.35 57.35-34.5 53.05-34.5L53.05-34.5Q48.75-34.5 45.52-32.38 42.3-30.25 40.47-26.43 38.65-22.6 38.65-17.5ZM79.25-17.5L79.25-17.5Q79.25-21.35 80.62-24.68 82-28 84.47-30.48 86.95-32.95 90.27-34.33 93.59-35.7 97.45-35.7L97.45-35.7Q101.3-35.7 104.62-34.33 107.95-32.95 110.42-30.48 112.9-28 114.27-24.68 115.65-21.35 115.65-17.5L115.65-17.5Q115.65-13.65 114.27-10.33 112.9-7 110.42-4.53 107.95-2.05 104.62-0.68 101.3 0.7 97.45 0.7L97.45 0.7Q93.59 0.7 90.27-0.68 86.95-2.05 84.47-4.53 82-7 80.62-10.33 79.25-13.65 79.25-17.5ZM83.05-17.5L83.05-17.5Q83.05-12.4 84.84-8.58 86.65-4.75 89.9-2.63 93.15-0.5 97.45-0.5L97.45-0.5Q101.75-0.5 105-2.63 108.25-4.75 110.05-8.6 111.84-12.45 111.84-17.5L111.84-17.5Q111.84-22.55 110.05-26.38 108.25-30.2 105-32.35 101.75-34.5 97.45-34.5L97.45-34.5Q93.15-34.5 89.92-32.38 86.7-30.25 84.87-26.43 83.05-22.6 83.05-17.5ZM152.24 0L147.74 0 131.34-17.95 146.54-35 150.84-35 134.39-19.35 152.24 0ZM129.54 0L126.14 0 126.14-35 129.54-35 129.54 0ZM159.74 0L159.74-35 166.44-35Q171.74-35 174.67-32.77 177.59-30.55 177.59-26.55L177.59-26.55Q177.59-23.45 175.77-21.4 173.94-19.35 170.49-18.65L170.49-18.65 170.49-18.35Q173.79-17.7 175.89-15.25 177.99-12.8 179.04-9.2L179.04-9.2Q179.99-5.9 180.92-4.08 181.84-2.25 182.97-1.45 184.09-0.65 185.64-0.3L185.64-0.3 185.64 0 183.59 0Q181.39 0 179.97-0.8 178.54-1.6 177.54-3.5 176.54-5.4 175.64-8.75L175.64-8.75Q174.19-13.9 171.79-16.05 169.39-18.2 165.94-18.2L165.94-18.2 165.64-18.2 165.64-19.1 165.94-19.1Q173.99-19.1 173.99-26.5L173.99-26.5Q173.99-33.8 166.44-33.8L166.44-33.8 163.14-33.8 163.14 0 159.74 0ZM207.24 0L191.84 0 191.84-35 207.09-35 207.09-32.55 198.34-33.7Q196.04-34 195.24-34L195.24-34 195.24-18.75Q195.89-18.75 198.34-18.9L198.34-18.9 206.54-19.4 206.54-17.1 198.34-17.6Q195.89-17.75 195.24-17.75L195.24-17.75 195.24-1Q196.14-1 198.39-1.3L198.39-1.3 207.24-2.45 207.24 0ZM245.34-4.3L245.64-4.3 245.34-1.25Q243.94-0.65 241.94-0.2 239.94 0.25 237.89 0.48 235.84 0.7 234.24 0.7L234.24 0.7Q230.19 0.7 226.74-0.68 223.29-2.05 220.71-4.5 218.14-6.95 216.69-10.28 215.24-13.6 215.24-17.5L215.24-17.5Q215.24-21.4 216.69-24.73 218.14-28.05 220.71-30.5 223.29-32.95 226.74-34.33 230.19-35.7 234.24-35.7L234.24-35.7Q235.89-35.7 237.94-35.45 239.99-35.2 241.94-34.77 243.89-34.35 245.24-33.8L245.24-33.8 244.99-31 244.69-31Q242.84-32.7 240.04-33.6 237.24-34.5 234.24-34.5L234.24-34.5Q229.74-34.5 226.31-32.38 222.89-30.25 220.96-26.43 219.04-22.6 219.04-17.5L219.04-17.5Q219.04-12.35 220.96-8.55 222.89-4.75 226.29-2.63 229.69-0.5 234.24-0.5L234.24-0.5Q237.64-0.5 240.56-1.6 243.49-2.7 245.34-4.3L245.34-4.3ZM252.13-17.5L252.13-17.5Q252.13-21.35 253.51-24.68 254.88-28 257.36-30.48 259.83-32.95 263.16-34.33 266.48-35.7 270.33-35.7L270.33-35.7Q274.18-35.7 277.51-34.33 280.83-32.95 283.31-30.48 285.78-28 287.16-24.68 288.53-21.35 288.53-17.5L288.53-17.5Q288.53-13.65 287.16-10.33 285.78-7 283.31-4.53 280.83-2.05 277.51-0.68 274.18 0.7 270.33 0.7L270.33 0.7Q266.48 0.7 263.16-0.68 259.83-2.05 257.36-4.53 254.88-7 253.51-10.33 252.13-13.65 252.13-17.5ZM255.93-17.5L255.93-17.5Q255.93-12.4 257.73-8.58 259.53-4.75 262.78-2.63 266.03-0.5 270.33-0.5L270.33-0.5Q274.63-0.5 277.88-2.63 281.13-4.75 282.93-8.6 284.73-12.45 284.73-17.5L284.73-17.5Q284.73-22.55 282.93-26.38 281.13-30.2 277.88-32.35 274.63-34.5 270.33-34.5L270.33-34.5Q266.03-34.5 262.81-32.38 259.58-30.25 257.76-26.43 255.93-22.6 255.93-17.5Z" opacity="1" transform="matrix(1,0,0,1,0,0)" fill="#556970" class="wordmark-text-0" data-fill-palette-color="primary" id="text-0"></path></svg></g></svg></g></svg></g></svg></g><g><svg viewBox="0 0 98.74738848654498 133.63289311824144" height="133.63289311824144" width="98.74738848654498"><g><svg version="1.1" xmlns="http://www.w3.org/2000/svg" xmlns:xlink="http://www.w3.org/1999/xlink" x="0" y="0" viewBox="0.00021628517234974603 0.001 73.89378371482763 99.999" enable-background="new 0 0 73.894 100" xml:space="preserve" width="98.74738848654498" height="133.63289311824144" class="icon-icon-0" data-fill-palette-color="accent" id="icon-0"><path fill="#dd4d31" d="M68.759 0.001C57.947 0.087 0.009 0.112 0.009 0.112-0.062 40.059 0.32 69.361 0.345 94.308L3.916 100h69.978V8.259h-2.12c-1.046-1.082-3.714-5.468-3.684-5.468 0.254-0.001 0.304 0.035 2.79 0C70.88 2.791 69.134 0.483 68.759 0.001L68.759 0.001zM28.022 2.792c13.441-0.036 28.818-0.054 36.496 0 0 0.053 3.412 5.219 3.683 5.469L6.482 7.813l-3.46-4.911C3.022 2.903 14.582 2.821 28.022 2.792L28.022 2.792zM10.835 11.497h5.134v86.049h-5.134V11.497z" data-fill-palette-color="accent"></path></svg></g></svg></g></svg></g><defs></defs></svg><rect width="395.52" height="104.38997042369341" fill="none" stroke="none" visibility="hidden"></rect></g></svg></g></svg>